#!OML:ASF H:\Martial Arts Walks\Project 1\Capture day 1\Session 1\male.ASF
:FULLY-SPECIFIED
:DEGREES
1882
root 1.40823 14.6234 -26.1936 13.6638 -12.1526 -4.89031
lowerback 11.3835 5.96113 -2.36956
upperback -2.57289 7.53788 -0.917293
thorax -9.30808 3.73519 -1.11789
lowerneck -1.44914 -3.69912 -5.98056
upperneck -0.380267 -4.88458 8.7141
head 0.535358 -2.41473 3.83694
rclavicle 2.29596e-014 4.37326e-015
rhumerus 50.3264 25.6707 -54.3916
rradius 69.1033
rwrist -48.9008
rhand -18.8378 -55.0486
rfingers 7.12502
rthumb 7.46167 -84.897
lclavicle 2.29596e-014 4.37326e-015
lhumerus -27.4391 -34.3206 103.584
lradius 111.161
lwrist -34.6384
lhand 72.8038 9.48384
lfingers 7.12502
lthumb 72.3546 293.239
rfemur 1.17506 -6.27618 11.7339
rtibia 57.9317
rfoot -5.54629 -28.3609
rtoes 16.2451
lfemur -63.645 25.3802 -21.8819
ltibia 77.726
lfoot -14.8478 21.8866
ltoes -8.80759
1883
root 1.38715 14.6105 -26.3633 13.7686 -13.7398 -5.52545
lowerback 11.2892 5.98804 -2.31872
upperback -2.73211 7.60929 -0.658717
thorax -9.45904 3.77548 -0.88931
lowerneck -1.39866 -3.18948 -5.7076
upperneck -0.120426 -4.21911 8.46776
head 0.541822 -2.08155 3.70985
rclavicle 3.25013e-014 -1.98785e-015
rhumerus 49.1204 27.8961 -54.6845
rradius 74.199
rwrist -49.5497
rhand -18.0595 -52.1374
rfingers 7.12502
rthumb 8.21294 -81.9578
lclavicle 3.25013e-014 -1.98785e-015
lhumerus -23.3023 -33.6517 100.752
lradius 112.227
lwrist -30.9016
lhand 72.8038 9.48384
lfingers 7.12502
lthumb 72.3546 293.239
rfemur 3.20057 -5.92996 10.4675
rtibia 53.6551
rfoot -3.34878 -26.6173
rtoes 13.5874
lfemur -64.331 27.2605 -21.5517
ltibia 77.8163
lfoot -14.3609 21.486
ltoes -8.63378
1884
root 1.35924 14.6022 -26.5356 13.8739 -15.3566 -6.20787
lowerback 11.2358 5.96912 -2.39398
upperback -2.89229 7.60381 -0.359846
thorax -9.65746 3.78689 -0.53936
lowerneck -1.30978 -2.62475 -5.39573
upperneck 0.16673 -3.48316 8.23278
head 0.548096 -1.71353 3.58004
rclavicle -1.20265e-013 -1.70955e-014
rhumerus 47.4211 30.3748 -55.2573
rradius 79.5786
rwrist -48.4687
rhand -15.9798 -47.9507
rfingers 7.12502
rthumb 10.2197 -77.6824
lclavicle -1.20265e-013 -1.70955e-014
lhumerus -19.0618 -32.5305 97.6104
lradius 113.102
lwrist -27.3227
lhand 72.8038 9.48384
lfingers 7.12502
lthumb 72.3546 293.239
rfemur 4.95494 -5.60686 9.33821
rtibia 49.6425
rfoot -1.207 -24.8235
rtoes 11.0495
lfemur -64.8884 29.1104 -21.0745
ltibia 77.8261
lfoot -13.7909 21.1164
ltoes -8.51397
1885
root 1.32429 14.5981 -26.7112 14.0048 -16.9488 -6.97042
lowerback 11.1816 5.90011 -2.54066
upperback -3.03481 7.52513 -0.0213422
thorax -9.84977 3.76969 -0.0918344
lowerneck -1.21633 -2.02511 -5.05301
upperneck 0.487019 -2.70256 8.01173
head 0.565029 -1.32266 3.44872
rclavicle -9.83984e-015 -3.97569e-015
rhumerus 45.1061 33.0124 -56.2452
rradius 85.1183
rwrist -46.0731
rhand -12.6146 -42.6862
rfingers 7.12502
rthumb 13.4646 -72.231
lclavicle -9.83984e-015 -3.97569e-015
lhumerus -14.6946 -30.9124 94.2064
lradius 113.613
lwrist -24.3067
lhand 72.8038 9.48384
lfingers 7.12502
lthumb 72.3546 293.239
rfemur 6.43172 -5.30794 8.42762
rtibia 45.9783
rfoot 0.731257 -23.2478
rtoes 8.58684
lfemur -65.3254 30.8712 -20.3938
ltibia 77.7605
lfoot -13.1537 20.7666
ltoes -8.3666
1886
root 1.28227 14.5973 -26.8922 14.1968 -18.4438 -7.85684
lowerback 11.108 5.77773 -2.67448
upperback -3.15446 7.38098 0.348615
thorax -10.0048 3.72305 0.400737
lowerneck -1.12184 -1.41724 -4.68709
upperneck 0.825439 -1.91223 7.8209
head 0.591768 -0.926274 3.32269
rclavicle -3.37934e-015 -1.82882e-014
rhumerus 42.0272 35.6988 -57.7719
rradius 90.7648
rwrist -43.1822
rhand -8.29652 -36.5718
rfingers 7.12502
rthumb 17.6235 -65.7931
lclavicle -3.37934e-015 -1.82882e-014
lhumerus -10.1686 -28.8018 90.6381
lradius 113.531
lwrist -21.9893
lhand 76.5894 29.3818
lfingers 7.12502
lthumb 70.1342 304.08
rfemur 7.62655 -5.02482 7.8411
rtibia 42.7304
rfoot 2.38539 -22.106
rtoes 6.284
lfemur -65.6748 32.4677 -19.4509
ltibia 77.6272
lfoot -12.4259 20.4411
ltoes -8.17443
1887
root 1.23382 14.5976 -27.0792 14.4638 -19.7512 -8.87116
lowerback 10.9955 5.59735 -2.72241
upperback -3.23682 7.17391 0.729331
thorax -10.0804 3.64283 0.879275
lowerneck -1.05644 -0.83433 -4.31824
upperneck 1.16949 -1.15551 7.69432
head 0.632989 -0.545268 3.21731
rclavicle 3.50855e-014 -1.19271e-014
rhumerus 38.0642 38.2914 -59.9215
rradius 96.4175
rwrist -40.5732
rhand -3.06446 -29.9524
rfingers 7.12502
rthumb 22.6521 -58.643
lclavicle 3.50855e-014 -1.19271e-014
lhumerus -5.4635 -26.3141 87.057
lradius 112.509
lwrist -20.8489
lhand 61.4783 25.1082
lfingers 7.12502
lthumb 74.8557 347.36
rfemur 8.5792 -4.75385 7.63892
rtibia 39.9306
rfoot 3.70003 -21.5269
rtoes 4.10443
lfemur -65.954 33.794 -18.2213
ltibia 77.4383
lfoot -11.6339 20.1329
ltoes -7.84214
1888
root 1.18008 14.5972 -27.2724 14.7865 -20.8036 -9.98399
lowerback 10.8789 5.36281 -2.64517
upperback -3.29081 6.91043 1.09357
thorax -10.0973 3.52755 1.28683
lowerneck -1.01177 -0.299557 -3.95672
upperneck 1.51052 -0.464068 7.6563
head 0.685625 -0.195434 3.14306
rclavicle -8.72665e-014 5.56597e-015
rhumerus 33.0737 40.6661 -62.7842
rradius 101.951
rwrist -38.7608
rhand 3.1527 -23.1026
rfingers 7.12502
rthumb 28.6065 -50.9333
lclavicle -8.72665e-014 5.56597e-015
lhumerus -0.570247 -23.5449 83.6365
lradius 110.321
lwrist -20.9312
lhand 53.3551 20.0002
lfingers 7.12502
lthumb 71.9759 368.115
rfemur 9.34591 -4.46963 7.83679
rtibia 37.5812
rfoot 4.6249 -21.5349
rtoes 1.99631
lfemur -66.163 34.757 -16.7178
ltibia 77.1947
lfoot -10.7504 19.8686
ltoes -7.43528
